<?xml version="1.0" encoding="utf-8"?>
<!-- Generator: Adobe Illustrator 23.0.1, SVG Export Plug-In . SVG Version: 6.00 Build 0)  -->
<svg version="1.1" xmlns="http://www.w3.org/2000/svg" xmlns:xlink="http://www.w3.org/1999/xlink" x="0px" y="0px"
	 viewBox="0 0 432 432" enable-background="new 0 0 432 432" xml:space="preserve">
<g id="Layer_65">
</g>
<g id="Layer_66">
</g>
<g id="Layer_67">
</g>
<g id="Layer_68">
</g>
<g id="Layer_69">
</g>
<g id="Layer_70">
</g>
<g id="Layer_71">
</g>
<g id="Layer_72">
</g>
<g id="Layer_73">
</g>
<g id="Layer_74">
</g>
<g id="Layer_75">
</g>
<g id="Layer_76">
	<path d="M343.31,274.04v-62.11c0-21.98-17.88-39.86-39.86-39.86c-0.27,0-0.54,0.02-0.81,0.02v-4.44h5.64h27.1
		c1.38,0,2.5-1.12,2.5-2.5v-25.38c0-1.38-1.12-2.5-2.5-2.5h-27.1c-1.38,0-2.5,1.12-2.5,2.5v22.88h-3.14V113.2
		c0-0.73-0.32-1.42-0.86-1.89l-3.73-3.23C281.71,93.95,244.95,88.91,216,88.91c-28.95,0-65.71,5.04-82.04,19.17l-3.73,3.23
		c-0.55,0.47-0.86,1.17-0.86,1.89v49.45h-3.14v-22.88c0-1.38-1.12-2.5-2.5-2.5h-27.1c-1.38,0-2.5,1.12-2.5,2.5v25.38
		c0,1.38,1.12,2.5,2.5,2.5h27.1h5.64v4.44c-0.27-0.01-0.54-0.02-0.81-0.02c-21.98,0-39.86,17.88-39.86,39.86v62.11
		c-3.46,1.65-5.86,5.17-5.86,9.25v12.04c0,5.66,4.6,10.26,10.26,10.26h12.69v18.01c0,10.74,8.74,19.48,19.48,19.48h6.58
		c10.74,0,19.48-8.74,19.48-19.48v-18.01h129.36v18.01c0,10.74,8.74,19.48,19.48,19.48h6.58c10.74,0,19.48-8.74,19.48-19.48v-18.01
		h12.69c5.66,0,10.26-4.6,10.26-10.26v-12.04C349.17,279.21,346.77,275.69,343.31,274.04z M310.79,142.27h22.1v20.38h-22.1V142.27z
		 M99.11,162.65v-20.38h22.1v20.38H99.11z M134.36,165.16C134.36,165.16,134.36,165.16,134.36,165.16
		C134.36,165.15,134.36,165.15,134.36,165.16v-50.82l2.87-2.48c15.3-13.23,50.72-17.95,78.77-17.95c28.05,0,63.48,4.71,78.77,17.95
		l2.87,2.48v58.15c-1.98,0.29-3.92,0.73-5.8,1.3v-55.66c0-0.73-0.32-1.42-0.86-1.89C279.37,106.2,249.94,99.71,216,99.71
		s-63.37,6.49-74.98,16.53c-0.55,0.47-0.86,1.17-0.86,1.89v55.66c-1.88-0.57-3.82-1.01-5.8-1.3V165.16z M286.84,172.46
		c-13.58-8.33-40.4-13.55-70.84-13.55s-57.26,5.22-70.84,13.55v-53.14c11.23-8.77,39.38-14.61,70.84-14.61s59.61,5.84,70.84,14.61
		V172.46z M128.55,177.07c19.22,0,34.86,15.64,34.86,34.86c0,1.38,1.12,2.5,2.5,2.5s2.5-1.12,2.5-2.5c0-15.12-8.46-28.3-20.9-35.05
		c12.48-7.85,39.03-12.97,68.49-12.97s56,5.12,68.49,12.97c-12.44,6.75-20.9,19.93-20.9,35.05c0,1.38,1.12,2.5,2.5,2.5
		s2.5-1.12,2.5-2.5c0-19.22,15.64-34.86,34.86-34.86s34.86,15.64,34.86,34.86v61.11H93.69v-61.11
		C93.69,192.71,109.33,177.07,128.55,177.07z M146.32,323.61c0,7.98-6.5,14.48-14.48,14.48h-6.58c-7.98,0-14.48-6.5-14.48-14.48
		v-18.01h35.54V323.61z M321.22,323.61c0,7.98-6.5,14.48-14.48,14.48h-6.58c-7.98,0-14.48-6.5-14.48-14.48v-18.01h35.54V323.61z
		 M344.17,295.34c0,2.9-2.36,5.26-5.26,5.26h-15.19h-40.54H148.82h-40.54H93.09c-2.9,0-5.26-2.36-5.26-5.26v-12.04
		c0-2.9,2.36-5.26,5.26-5.26h245.83c2.9,0,5.26,2.36,5.26,5.26V295.34z M184.47,265.58h63.06c1.38,0,2.5-1.12,2.5-2.5V217.6
		c0-0.71-0.3-1.39-0.84-1.87l-31.53-28.11c-0.04-0.04-0.09-0.07-0.14-0.1c-0.06-0.05-0.12-0.09-0.18-0.13
		c-0.08-0.05-0.15-0.09-0.23-0.13c-0.06-0.03-0.12-0.06-0.18-0.09c-0.09-0.04-0.19-0.06-0.29-0.09c-0.05-0.01-0.11-0.03-0.16-0.04
		c-0.31-0.06-0.64-0.06-0.95,0c-0.06,0.01-0.11,0.03-0.16,0.04c-0.1,0.03-0.19,0.05-0.29,0.09c-0.06,0.03-0.12,0.06-0.18,0.09
		c-0.08,0.04-0.16,0.08-0.23,0.13c-0.06,0.04-0.12,0.09-0.18,0.13c-0.05,0.04-0.1,0.06-0.14,0.1l-31.53,28.11
		c-0.53,0.47-0.84,1.15-0.84,1.87v45.48C181.97,264.47,183.09,265.58,184.47,265.58z M245.03,260.58H218.5v-65.51l26.53,23.65
		V260.58z M186.97,218.73l26.53-23.65v65.51h-26.53V218.73z M128.55,240.99c16.02,0,29.06-13.04,29.06-29.06
		s-13.04-29.06-29.06-29.06s-29.06,13.04-29.06,29.06S112.53,240.99,128.55,240.99z M128.55,187.87c13.27,0,24.06,10.79,24.06,24.06
		c0,13.27-10.79,24.06-24.06,24.06s-24.06-10.79-24.06-24.06C104.49,198.66,115.28,187.87,128.55,187.87z M303.45,240.99
		c16.02,0,29.06-13.04,29.06-29.06s-13.04-29.06-29.06-29.06s-29.06,13.04-29.06,29.06S287.42,240.99,303.45,240.99z M303.45,187.87
		c13.27,0,24.06,10.79,24.06,24.06c0,13.27-10.79,24.06-24.06,24.06s-24.06-10.79-24.06-24.06
		C279.39,198.66,290.18,187.87,303.45,187.87z M206.41,110.98c-4.51-0.43-8.88,1.25-11.97,4.63c-6.58,7.2-4.61,19.83,4.48,28.75
		c4.82,4.73,12.64,8.72,17.08,8.72s12.26-4,17.08-8.72c9.09-8.93,11.06-21.56,4.48-28.75c-3.09-3.38-7.45-5.06-11.97-4.63
		c-3.65,0.35-7.05,2.03-9.59,4.63C213.46,113,210.06,111.33,206.41,110.98z M218.13,120.96c1.72-2.82,4.69-4.69,7.94-5.01
		c2.98-0.28,5.75,0.79,7.8,3.03c4.68,5.11,2.75,14.9-4.29,21.81c-4.12,4.04-10.79,7.29-13.58,7.29s-9.46-3.25-13.58-7.29
		c-7.04-6.91-8.97-16.7-4.29-21.81c1.83-2,4.24-3.07,6.85-3.07c0.31,0,0.63,0.01,0.94,0.04c3.25,0.31,6.21,2.19,7.94,5.01
		c0.45,0.74,1.26,1.2,2.13,1.2S217.68,121.7,218.13,120.96z"/>
</g>
<g id="Layer_77">
</g>
<g id="Layer_78">
</g>
<g id="Layer_79">
</g>
<g id="Layer_80">
</g>
<g id="Layer_81">
</g>
<g id="Layer_82">
</g>
<g id="Layer_83">
</g>
<g id="Layer_84">
</g>
<g id="Layer_85">
</g>
<g id="Layer_86">
</g>
<g id="Layer_87">
</g>
<g id="Layer_88">
</g>
<g id="Layer_89">
</g>
<g id="Layer_90">
</g>
<g id="Layer_91">
</g>
<g id="Layer_92">
</g>
<g id="Layer_93">
</g>
<g id="Layer_94">
</g>
<g id="Layer_95">
</g>
<g id="Layer_96">
</g>
<g id="Layer_97">
</g>
<g id="Layer_98">
</g>
<g id="Layer_99">
</g>
<g id="Layer_100">
</g>
</svg>
