<?xml version="1.0" encoding="utf-8"?>
<!-- Generator: Adobe Illustrator 23.0.1, SVG Export Plug-In . SVG Version: 6.00 Build 0)  -->
<svg version="1.1" xmlns="http://www.w3.org/2000/svg" xmlns:xlink="http://www.w3.org/1999/xlink" x="0px" y="0px"
	 viewBox="0 0 432 432" enable-background="new 0 0 432 432" xml:space="preserve">
<g id="Layer_65">
</g>
<g id="Layer_66">
</g>
<g id="Layer_67">
</g>
<g id="Layer_68">
</g>
<g id="Layer_69">
</g>
<g id="Layer_70">
</g>
<g id="Layer_71">
</g>
<g id="Layer_72">
</g>
<g id="Layer_73">
</g>
<g id="Layer_74">
</g>
<g id="Layer_75">
</g>
<g id="Layer_76">
</g>
<g id="Layer_77">
</g>
<g id="Layer_78">
</g>
<g id="Layer_79">
</g>
<g id="Layer_80">
</g>
<g id="Layer_81">
</g>
<g id="Layer_82">
</g>
<g id="Layer_83">
</g>
<g id="Layer_84">
</g>
<g id="Layer_85">
</g>
<g id="Layer_86">
</g>
<g id="Layer_87">
</g>
<g id="Layer_88">
</g>
<g id="Layer_89">
</g>
<g id="Layer_90">
</g>
<g id="Layer_91">
</g>
<g id="Layer_92">
</g>
<g id="Layer_93">
</g>
<g id="Layer_94">
</g>
<g id="Layer_95">
</g>
<g id="Layer_96">
</g>
<g id="Layer_97">
	<path d="M282.71,146.2c-24.37,0-47.97,8.5-66.73,23.94c-16.87-13.89-38.14-22.64-61.37-23.8l38.36-44.68
		c0.75-0.88,0.81-2.16,0.12-3.1l-15.96-21.88c-0.47-0.65-1.22-1.03-2.02-1.03h-51.65c-0.8,0-1.55,0.38-2.02,1.03l-15.96,21.88
		c-0.68,0.94-0.63,2.22,0.12,3.1l38.36,44.68c-55.48,2.78-99.75,48.79-99.75,104.94c0,57.94,47.14,105.08,105.08,105.08
		c25.3,0,48.54-8.99,66.69-23.94c18.76,15.44,42.36,23.94,66.73,23.94c57.94,0,105.08-47.14,105.08-105.08
		S340.65,146.2,282.71,146.2z M124.74,80.64h49.11l14.04,19.25l-38.6,44.97l-38.6-44.97L124.74,80.64z M49.21,251.28
		c0-55.18,44.89-100.08,100.08-100.08s100.08,44.9,100.08,100.08s-44.89,100.08-100.08,100.08S49.21,306.46,49.21,251.28z
		 M282.71,351.36c-22.92,0-45.13-7.9-62.89-22.26c21.21-19.24,34.55-47,34.55-77.82s-13.34-58.58-34.55-77.82
		c17.76-14.36,39.97-22.26,62.89-22.26c55.18,0,100.08,44.9,100.08,100.08S337.89,351.36,282.71,351.36z M205.7,187.36
		c-14.88,17.9-23.07,40.6-23.07,63.92c0,23.32,8.19,46.02,23.07,63.92c0.88,1.06,0.74,2.64-0.33,3.52c-0.47,0.39-1.03,0.58-1.6,0.58
		c-0.72,0-1.43-0.31-1.92-0.9c-15.62-18.8-24.23-42.64-24.23-67.12c0-24.48,8.6-48.32,24.23-67.12c0.88-1.06,2.46-1.21,3.52-0.33
		C206.44,184.72,206.59,186.29,205.7,187.36z M151.19,133.75c-0.5,0.58-1.19,0.87-1.9,0.87c-0.58,0-1.16-0.2-1.63-0.6
		c-1.05-0.9-1.17-2.48-0.27-3.53l15.63-18.21c0.9-1.05,2.48-1.17,3.53-0.27c1.05,0.9,1.17,2.48,0.27,3.53L151.19,133.75z
		 M130.97,90.42l-7.68,10.54c-0.49,0.67-1.25,1.03-2.02,1.03c-0.51,0-1.03-0.16-1.47-0.48c-1.12-0.81-1.36-2.38-0.55-3.49
		l7.68-10.54c0.81-1.12,2.38-1.36,3.49-0.55C131.54,87.74,131.79,89.3,130.97,90.42z M153.28,100.02c0-1.38,1.12-2.5,2.5-2.5h21.57
		c1.38,0,2.5,1.12,2.5,2.5s-1.12,2.5-2.5,2.5h-21.57C154.4,102.52,153.28,101.4,153.28,100.02z"/>
</g>
<g id="Layer_98">
</g>
<g id="Layer_99">
</g>
<g id="Layer_100">
</g>
</svg>
