<?xml version="1.0" encoding="utf-8"?>
<!-- Generator: Adobe Illustrator 23.0.1, SVG Export Plug-In . SVG Version: 6.00 Build 0)  -->
<svg version="1.1" xmlns="http://www.w3.org/2000/svg" xmlns:xlink="http://www.w3.org/1999/xlink" x="0px" y="0px"
	 viewBox="0 0 432 432" enable-background="new 0 0 432 432" xml:space="preserve">
<g id="Layer_65">
</g>
<g id="Layer_66">
</g>
<g id="Layer_67">
</g>
<g id="Layer_68">
</g>
<g id="Layer_69">
</g>
<g id="Layer_70">
</g>
<g id="Layer_71">
</g>
<g id="Layer_72">
</g>
<g id="Layer_73">
</g>
<g id="Layer_74">
</g>
<g id="Layer_75">
</g>
<g id="Layer_76">
</g>
<g id="Layer_77">
</g>
<g id="Layer_78">
</g>
<g id="Layer_79">
</g>
<g id="Layer_80">
</g>
<g id="Layer_81">
</g>
<g id="Layer_82">
</g>
<g id="Layer_83">
</g>
<g id="Layer_84">
</g>
<g id="Layer_85">
</g>
<g id="Layer_86">
</g>
<g id="Layer_87">
</g>
<g id="Layer_88">
</g>
<g id="Layer_89">
</g>
<g id="Layer_90">
</g>
<g id="Layer_91">
</g>
<g id="Layer_92">
</g>
<g id="Layer_93">
</g>
<g id="Layer_94">
	<path d="M328.08,213.44h-61.39v-18.69c0-1.38-1.12-2.5-2.5-2.5H218.5V174.5h50.43c1.38,0,2.5-1.12,2.5-2.5V72.14
		c0-1.38-1.12-2.5-2.5-2.5H163.07c-1.38,0-2.5,1.12-2.5,2.5V172c0,1.38,1.12,2.5,2.5,2.5h50.43v17.75h-45.69
		c-1.38,0-2.5,1.12-2.5,2.5v18.69h-28.7v-8.6h20.31c1.38,0,2.5-1.12,2.5-2.5v-7.59c0-1.38-1.12-2.5-2.5-2.5h-45.61
		c-1.38,0-2.5,1.12-2.5,2.5v7.59c0,1.38,1.12,2.5,2.5,2.5h20.31v8.6h-27.7c-1.38,0-2.5,1.12-2.5,2.5v143.93c0,1.38,1.12,2.5,2.5,2.5
		H216h112.08c1.38,0,2.5-1.12,2.5-2.5V215.94C330.58,214.55,329.46,213.44,328.08,213.44z M165.57,74.64h100.86v94.86H165.57V74.64z
		 M113.81,197.25h40.61v2.59h-40.61V197.25z M325.58,357.36H216H106.42V218.44h61.39c1.38,0,2.5-1.12,2.5-2.5v-18.69H216h45.69
		v18.69c0,1.38,1.12,2.5,2.5,2.5h61.39V357.36z M115.5,237.98H316.5c1.38,0,2.5,1.12,2.5,2.5s-1.12,2.5-2.5,2.5H115.5
		c-1.38,0-2.5-1.12-2.5-2.5S114.12,237.98,115.5,237.98z M216,247.36c-27.95,0-50.69,22.74-50.69,50.69s22.74,50.69,50.69,50.69
		s50.69-22.74,50.69-50.69S243.95,247.36,216,247.36z M216,343.74c-25.19,0-45.69-20.5-45.69-45.69s20.5-45.69,45.69-45.69
		s45.69,20.5,45.69,45.69S241.19,343.74,216,343.74z M250.12,298.05c0-1.38,1.12-2.5,2.5-2.5s2.5,1.12,2.5,2.5
		c0,21.57-17.55,39.12-39.12,39.12c-1.38,0-2.5-1.12-2.5-2.5s1.12-2.5,2.5-2.5C234.81,332.17,250.12,316.87,250.12,298.05z
		 M259.66,97.91V83.24c0-1.38-1.12-2.5-2.5-2.5h-82.32c-1.38,0-2.5,1.12-2.5,2.5v14.67c0,1.38,1.12,2.5,2.5,2.5h82.32
		C258.54,100.41,259.66,99.29,259.66,97.91z M254.66,95.41h-77.32v-9.67h77.32V95.41z"/>
</g>
<g id="Layer_95">
</g>
<g id="Layer_96">
</g>
<g id="Layer_97">
</g>
<g id="Layer_98">
</g>
<g id="Layer_99">
</g>
<g id="Layer_100">
</g>
</svg>
