<?xml version="1.0" encoding="utf-8"?>
<!-- Generator: Adobe Illustrator 23.0.1, SVG Export Plug-In . SVG Version: 6.00 Build 0)  -->
<svg version="1.1" xmlns="http://www.w3.org/2000/svg" xmlns:xlink="http://www.w3.org/1999/xlink" x="0px" y="0px"
	 viewBox="0 0 432 432" enable-background="new 0 0 432 432" xml:space="preserve">
<g id="Layer_65">
</g>
<g id="Layer_66">
</g>
<g id="Layer_67">
</g>
<g id="Layer_68">
</g>
<g id="Layer_69">
</g>
<g id="Layer_70">
</g>
<g id="Layer_71">
</g>
<g id="Layer_72">
</g>
<g id="Layer_73">
</g>
<g id="Layer_74">
</g>
<g id="Layer_75">
</g>
<g id="Layer_76">
</g>
<g id="Layer_77">
</g>
<g id="Layer_78">
</g>
<g id="Layer_79">
</g>
<g id="Layer_80">
</g>
<g id="Layer_81">
</g>
<g id="Layer_82">
</g>
<g id="Layer_83">
</g>
<g id="Layer_84">
</g>
<g id="Layer_85">
</g>
<g id="Layer_86">
</g>
<g id="Layer_87">
</g>
<g id="Layer_88">
</g>
<g id="Layer_89">
</g>
<g id="Layer_90">
</g>
<g id="Layer_91">
</g>
<g id="Layer_92">
</g>
<g id="Layer_93">
	<path d="M74.48,69.49c-4.54,17.45-8.25,35.46-11.01,53.55c-0.14,0.91,0.23,1.82,0.96,2.37c0.44,0.33,0.97,0.51,1.51,0.51
		c0.35,0,0.7-0.07,1.03-0.22c15.53-7.03,30.78-14.87,45.4-23.32c-2.19,16.71-3.61,33.78-4.19,50.82c-0.03,0.92,0.44,1.78,1.24,2.24
		c0.39,0.23,0.83,0.34,1.26,0.34c0.45,0,0.9-0.12,1.3-0.37c14.53-8.87,28.68-18.49,42.13-28.63c-0.21,16.83,0.39,33.92,1.81,50.88
		c0.08,0.92,0.65,1.72,1.5,2.08c0.32,0.14,0.66,0.21,0.99,0.21c0.55,0,1.1-0.18,1.55-0.54c13.35-10.55,26.22-21.79,38.36-33.46
		c1.78,16.74,4.41,33.63,7.84,50.3c0.19,0.9,0.85,1.63,1.73,1.89c0.24,0.07,0.48,0.1,0.71,0.1c0.66,0,1.3-0.26,1.77-0.74
		c12.01-12.07,23.46-24.76,34.13-37.78c3.78,16.43,8.41,32.89,13.83,49.03c0.29,0.87,1.04,1.51,1.95,1.67
		c0.14,0.02,0.28,0.04,0.42,0.04c0.76,0,1.49-0.35,1.97-0.96c10.52-13.42,20.42-27.39,29.49-41.6
		c5.75,15.88,12.38,31.69,19.74,47.07c0.4,0.83,1.21,1.37,2.13,1.42c0.04,0,0.08,0,0.13,0c0.87,0,1.68-0.45,2.13-1.2
		c9.53-15.62,18.28-31.79,26.04-48.08c13.55-0.17,27.08-1.03,40.53-2.59c1.37-0.16,2.35-1.4,2.2-2.77c-0.16-1.37-1.4-2.35-2.77-2.2
		C258.8,173.83,134.11,128.39,48.75,37.99c-0.95-1-2.53-1.05-3.53-0.1c-1,0.95-1.05,2.53-0.1,3.53
		C54.41,51.27,64.22,60.64,74.48,69.49z M69.14,119.21c2.51-15.56,5.72-31.02,9.56-46.08c10.27,8.63,21.06,16.81,32.14,24.37
		C97.4,105.3,83.4,112.59,69.14,119.21z M113.36,148.68c0.68-15.7,2.05-31.39,4.11-46.77c11.15,7.28,22.74,14.05,34.56,20.18
		C139.66,131.46,126.69,140.38,113.36,148.68z M160.54,172.56c-1.17-15.65-1.65-31.38-1.42-46.88c7.81,3.86,15.79,7.47,23.86,10.82
		c0.21,0.09,0.43,0.18,0.64,0.26c1.42,0.59,2.84,1.16,4.26,1.73c0.51,0.2,1.01,0.4,1.52,0.6c1.17,0.46,2.34,0.92,3.52,1.37
		c0.59,0.23,1.18,0.45,1.77,0.68c0.34,0.13,0.68,0.26,1.02,0.39C184.56,152.32,172.76,162.72,160.54,172.56z M210.14,190.64
		c-3.02-15.4-5.36-30.96-6.97-46.37c1.51,0.53,3.02,1.06,4.54,1.57c0,0,0.01,0,0.01,0c2.7,0.92,5.41,1.8,8.13,2.66
		c0.11,0.03,0.22,0.07,0.33,0.11c8.33,2.63,16.75,4.99,25.21,7.06C231.6,167.68,221.11,179.41,210.14,190.64z M261.62,202.72
		c-4.86-14.92-9.05-30.11-12.49-45.24c13,2.91,26.23,5.19,39.45,6.79C280.25,177.37,271.2,190.27,261.62,202.72z M314.44,208.61
		c-6.66-14.24-12.69-28.83-17.95-43.46c13.35,1.35,26.86,2.03,40.28,2.03C330.02,181.19,322.53,195.09,314.44,208.61z
		 M380.77,223.29c-85.35,90.4-210.04,135.84-333.54,121.57c-1.38-0.16-2.61,0.83-2.77,2.2c-0.16,1.37,0.82,2.61,2.2,2.77
		c13.45,1.56,26.98,2.41,40.53,2.59c7.76,16.29,16.51,32.45,26.03,48.08c0.46,0.75,1.27,1.2,2.13,1.2c0.04,0,0.08,0,0.13,0
		c0.92-0.05,1.73-0.59,2.13-1.42c7.36-15.38,13.99-31.19,19.74-47.07c9.07,14.2,18.97,28.18,29.49,41.6
		c0.48,0.61,1.21,0.96,1.97,0.96c0.14,0,0.28-0.01,0.42-0.04c0.91-0.16,1.65-0.8,1.95-1.67c5.42-16.14,10.05-32.61,13.83-49.03
		c10.67,13.02,22.12,25.72,34.13,37.78c0.48,0.48,1.12,0.74,1.77,0.74c0.24,0,0.48-0.03,0.71-0.1c0.88-0.26,1.55-0.99,1.73-1.89
		c3.43-16.67,6.06-33.56,7.84-50.3c12.13,11.67,25.01,22.91,38.36,33.46c0.45,0.35,1,0.54,1.55,0.54c0.34,0,0.67-0.07,0.99-0.21
		c0.84-0.37,1.42-1.17,1.5-2.08c1.43-16.96,2.03-34.05,1.81-50.88c13.45,10.14,27.6,19.76,42.13,28.63c0.4,0.24,0.85,0.37,1.3,0.37
		c0.44,0,0.87-0.11,1.26-0.34c0.79-0.46,1.27-1.33,1.24-2.24c-0.58-17.04-2-34.1-4.19-50.82c14.62,8.45,29.86,16.29,45.4,23.33
		c0.33,0.15,0.68,0.22,1.03,0.22c0.54,0,1.07-0.17,1.51-0.51c0.73-0.55,1.1-1.46,0.96-2.37c-2.76-18.09-6.47-36.1-11.01-53.55
		c10.26-8.85,20.07-18.22,29.36-28.06c0.95-1,0.9-2.59-0.1-3.53C383.3,222.24,381.71,222.28,380.77,223.29z M115.08,393.9
		c-8.09-13.52-15.58-27.42-22.33-41.43c13.42,0,26.93-0.68,40.28-2.03C127.77,365.08,121.74,379.66,115.08,393.9z M167.9,388.01
		c-9.59-12.46-18.63-25.36-26.95-38.45c13.22-1.6,26.45-3.88,39.45-6.79C176.95,357.91,172.76,373.09,167.9,388.01z M219.38,375.93
		c-10.97-11.23-21.46-22.96-31.25-34.97c8.45-2.07,16.87-4.43,25.2-7.06c0.12-0.04,0.25-0.08,0.37-0.12
		c2.71-0.86,5.41-1.74,8.09-2.65c0.02-0.01,0.04-0.01,0.06-0.02c1.5-0.51,3-1.03,4.5-1.56
		C224.74,344.98,222.41,360.53,219.38,375.93z M268.98,357.85c-12.22-9.84-24.02-20.25-35.17-31.01c0.33-0.13,0.67-0.26,1-0.38
		c0.61-0.23,1.22-0.46,1.82-0.7c1.15-0.44,2.31-0.89,3.46-1.35c0.52-0.21,1.05-0.41,1.57-0.62c1.4-0.56,2.8-1.13,4.19-1.71
		c0.23-0.1,0.47-0.19,0.7-0.29c8.07-3.35,16.04-6.96,23.84-10.81C270.63,326.48,270.15,342.21,268.98,357.85z M277.49,307.39
		c11.82-6.13,23.42-12.91,34.56-20.18c2.05,15.38,3.43,31.08,4.11,46.77C302.83,325.68,289.86,316.75,277.49,307.39z M318.68,282.78
		c11.09-7.56,21.87-15.73,32.14-24.37c3.84,15.06,7.05,30.53,9.56,46.08C346.12,297.88,332.13,290.6,318.68,282.78z M96.98,301.72
		l6.53,10.51c0.73,1.17,0.37,2.71-0.8,3.44c-0.41,0.26-0.87,0.38-1.32,0.38c-0.84,0-1.65-0.42-2.13-1.18l-6.53-10.51
		c-0.73-1.17-0.37-2.71,0.8-3.44C94.71,300.19,96.25,300.55,96.98,301.72z M269.48,389.91l-7.8,9.61c-0.49,0.61-1.21,0.92-1.94,0.92
		c-0.55,0-1.11-0.18-1.57-0.56c-1.07-0.87-1.23-2.44-0.36-3.52l7.8-9.61c0.87-1.07,2.44-1.23,3.52-0.36
		C270.18,387.27,270.35,388.84,269.48,389.91z M190.62,292.55l5.59,11.06c0.62,1.23,0.13,2.74-1.1,3.36
		c-0.36,0.18-0.75,0.27-1.13,0.27c-0.91,0-1.79-0.5-2.23-1.37l-5.59-11.06c-0.62-1.23-0.13-2.74,1.1-3.36
		C188.49,290.82,189.99,291.32,190.62,292.55z M82.57,395.79c0.9,1.04,0.79,2.62-0.26,3.53l-10.83,9.37
		c-0.47,0.41-1.05,0.61-1.63,0.61c-0.7,0-1.4-0.29-1.89-0.86c-0.9-1.04-0.79-2.62,0.26-3.53l10.83-9.37
		C80.08,394.63,81.66,394.75,82.57,395.79z M274.57,255.74l2.02,13.65c0.2,1.37-0.74,2.64-2.11,2.84c-0.12,0.02-0.25,0.03-0.37,0.03
		c-1.22,0-2.29-0.89-2.47-2.13l-2.02-13.65c-0.2-1.37,0.74-2.64,2.11-2.84C273.09,253.43,274.37,254.37,274.57,255.74z
		 M360.57,343.35c-0.3,1.11-1.31,1.84-2.41,1.84c-0.22,0-0.44-0.03-0.66-0.09l-14.93-4.1c-1.33-0.37-2.11-1.74-1.75-3.07
		c0.37-1.33,1.74-2.12,3.07-1.75l14.93,4.1C360.15,340.65,360.93,342.02,360.57,343.35z M368.79,191.65
		c1.38,0.07,2.44,1.24,2.37,2.62l-0.59,11.71c-0.07,1.34-1.17,2.38-2.5,2.38c-0.04,0-0.08,0-0.13,0c-1.38-0.07-2.44-1.24-2.37-2.62
		l0.59-11.71C366.24,192.64,367.4,191.58,368.79,191.65z M408.85,265.2c-0.03,1.36-1.14,2.45-2.5,2.45c-0.02,0-0.03,0-0.05,0
		l-14.93-0.29c-1.38-0.03-2.48-1.17-2.45-2.55c0.03-1.38,1.2-2.47,2.55-2.45l14.93,0.29C407.78,262.68,408.88,263.82,408.85,265.2z
		 M378.19,132.1c-0.98-0.98-0.98-2.56,0-3.54l9.95-9.95c0.98-0.98,2.56-0.98,3.54,0c0.98,0.98,0.98,2.56,0,3.54l-9.95,9.95
		c-0.49,0.49-1.13,0.73-1.77,0.73S378.68,132.59,378.19,132.1z M41.61,75.51c-0.03,1.36-1.14,2.45-2.5,2.45c-0.02,0-0.04,0-0.06,0
		l-13.46-0.29c-1.38-0.03-2.48-1.17-2.45-2.55c0.03-1.38,1.17-2.48,2.55-2.45l13.46,0.29C40.55,72.99,41.64,74.13,41.61,75.51z
		 M69.76,38.73l-0.29-13.46c-0.03-1.38,1.06-2.52,2.45-2.55c1.39-0.04,2.52,1.06,2.55,2.45l0.29,13.46
		c0.03,1.38-1.06,2.52-2.45,2.55c-0.02,0-0.04,0-0.06,0C70.9,41.17,69.79,40.09,69.76,38.73z M224.06,81.71L227.87,70
		c0.43-1.31,1.84-2.03,3.15-1.6c1.31,0.43,2.03,1.84,1.6,3.15l-3.81,11.71c-0.34,1.06-1.32,1.73-2.38,1.73
		c-0.26,0-0.52-0.04-0.77-0.12C224.35,84.43,223.64,83.02,224.06,81.71z M176.18,202.96c1.19,0.69,1.6,2.22,0.91,3.42l-7.82,13.49
		c-0.46,0.8-1.3,1.25-2.17,1.25c-0.43,0-0.86-0.11-1.25-0.34c-1.19-0.69-1.6-2.22-0.91-3.42l7.82-13.49
		C173.46,202.67,174.98,202.27,176.18,202.96z M82.41,161.91c0.51,1.28-0.12,2.74-1.4,3.25L65.5,171.3
		c-0.3,0.12-0.61,0.18-0.92,0.18c-1,0-1.94-0.6-2.32-1.58c-0.51-1.28,0.12-2.74,1.4-3.25l15.51-6.15
		C80.45,159.99,81.9,160.62,82.41,161.91z M296.72,121.7l8.2-10.83c0.83-1.1,2.4-1.32,3.5-0.48c1.1,0.83,1.32,2.4,0.48,3.5
		l-8.2,10.83c-0.49,0.65-1.24,0.99-2,0.99c-0.53,0-1.06-0.17-1.51-0.51C296.1,124.37,295.89,122.81,296.72,121.7z M145.33,72.15
		l2.93-14.34c0.28-1.35,1.59-2.22,2.95-1.95c1.35,0.28,2.23,1.6,1.95,2.95l-2.93,14.34c-0.24,1.18-1.28,2-2.45,2
		c-0.17,0-0.33-0.02-0.5-0.05C145.92,74.82,145.05,73.5,145.33,72.15z"/>
</g>
<g id="Layer_94">
</g>
<g id="Layer_95">
</g>
<g id="Layer_96">
</g>
<g id="Layer_97">
</g>
<g id="Layer_98">
</g>
<g id="Layer_99">
</g>
<g id="Layer_100">
</g>
</svg>
