<?xml version="1.0" encoding="utf-8"?>
<!-- Generator: Adobe Illustrator 23.0.1, SVG Export Plug-In . SVG Version: 6.00 Build 0)  -->
<svg version="1.1" xmlns="http://www.w3.org/2000/svg" xmlns:xlink="http://www.w3.org/1999/xlink" x="0px" y="0px"
	 viewBox="0 0 432 432" enable-background="new 0 0 432 432" xml:space="preserve">
<g id="Layer_65">
</g>
<g id="Layer_66">
</g>
<g id="Layer_67">
</g>
<g id="Layer_68">
</g>
<g id="Layer_69">
</g>
<g id="Layer_70">
</g>
<g id="Layer_71">
</g>
<g id="Layer_72">
</g>
<g id="Layer_73">
</g>
<g id="Layer_74">
</g>
<g id="Layer_75">
</g>
<g id="Layer_76">
</g>
<g id="Layer_77">
	<path d="M356.73,167.04c-0.22-0.85-0.87-1.52-1.71-1.77c-0.84-0.25-1.75-0.04-2.4,0.55c-0.04,0.04-3.51,3.17-9.58,7.28
		c1.95-24.03-2.01-43.87-2.31-45.33c-0.24-1.16-1.26-1.99-2.45-1.99c-71,0-107.42,15.8-122.82,25.22c-1.8,1.1-3.69,2.3-5.63,3.54
		c-8.77,5.58-20.79,13.23-25.06,10.88c-1.63-0.89-1.97-3.78-1.97-6.04c0-26.7-21.72-48.42-48.42-48.42
		c-26.7,0-48.42,21.72-48.42,48.42c0,2.92,0.28,5.84,0.79,8.7c-3.96,2.99-14.86,12.55-15.49,27.28c-0.03,0.69,0.24,1.37,0.73,1.86
		s1.17,0.77,1.86,0.74c1.02-0.02,24.46-0.25,38.53,39.32c8.96,25.19,38.06,83.79,114.58,83.79c42.96,0,83.77-19.52,109.14-52.22
		C358.76,239.66,366.08,203.51,356.73,167.04z M332.17,265.76c-24.44,31.49-63.76,50.29-105.19,50.29
		c-73.33,0-101.26-56.27-109.87-80.47c-12.66-35.61-33.13-41.52-40.61-42.47c1.9-13.56,14.27-21.77,14.4-21.86
		c0.99-0.65,1.37-1.87,0.98-2.94c-0.01-0.07-0.01-0.13-0.02-0.2c-0.58-2.86-0.88-5.81-0.88-8.75c0-23.94,19.48-43.42,43.42-43.42
		c23.94,0,43.42,19.48,43.42,43.42c0,5.25,1.53,8.76,4.56,10.42c6.85,3.77,18.7-3.76,30.15-11.05c1.92-1.22,3.79-2.41,5.56-3.49
		c14.79-9.05,49.72-24.18,118.12-24.48c1.84,10.97,9.07,64.46-18.13,97.84c-15.14,18.58-38.51,28-69.48,28c-1.38,0-2.5,1.12-2.5,2.5
		s1.12,2.5,2.5,2.5c32.55,0,57.23-10.05,73.37-29.86c12.6-15.48,18.24-34.62,20.43-52.26c4.58-2.89,8.11-5.51,10.42-7.33
		C360.3,205.77,353.04,238.87,332.17,265.76z M122.81,161.1c-2.06,3.55-5.88,5.76-9.98,5.76c-4.1,0-7.92-2.21-9.98-5.76
		c-0.69-1.19-0.28-2.72,0.91-3.42c1.19-0.69,2.72-0.28,3.42,0.91c1.17,2.01,3.33,3.26,5.65,3.26c2.32,0,4.49-1.25,5.65-3.26
		c0.69-1.2,2.23-1.6,3.42-0.91C123.09,158.37,123.5,159.9,122.81,161.1z"/>
</g>
<g id="Layer_78">
</g>
<g id="Layer_79">
</g>
<g id="Layer_80">
</g>
<g id="Layer_81">
</g>
<g id="Layer_82">
</g>
<g id="Layer_83">
</g>
<g id="Layer_84">
</g>
<g id="Layer_85">
</g>
<g id="Layer_86">
</g>
<g id="Layer_87">
</g>
<g id="Layer_88">
</g>
<g id="Layer_89">
</g>
<g id="Layer_90">
</g>
<g id="Layer_91">
</g>
<g id="Layer_92">
</g>
<g id="Layer_93">
</g>
<g id="Layer_94">
</g>
<g id="Layer_95">
</g>
<g id="Layer_96">
</g>
<g id="Layer_97">
</g>
<g id="Layer_98">
</g>
<g id="Layer_99">
</g>
<g id="Layer_100">
</g>
</svg>
