<?xml version="1.0" standalone="no"?>
<!DOCTYPE svg PUBLIC "-//W3C//DTD SVG 20010904//EN"
 "http://www.w3.org/TR/2001/REC-SVG-20010904/DTD/svg10.dtd">
<svg version="1.0" xmlns="http://www.w3.org/2000/svg"
 width="1566.000000pt" height="476.000000pt" viewBox="0 0 1566.000000 476.000000"
 preserveAspectRatio="xMidYMid meet">

<g transform="translate(0.000000,476.000000) scale(0.100000,-0.100000)"
fill="#000000" stroke="none">
<path d="M14450 4548 c-121 -39 -220 -107 -353 -243 -60 -62 -133 -205 -149
-295 -18 -95 -11 -193 18 -275 41 -114 63 -185 56 -185 -4 0 -2 -4 3 -8 6 -4
28 -43 50 -87 22 -43 47 -86 55 -95 8 -8 24 -29 34 -45 11 -17 78 -109 151
-205 249 -332 377 -566 462 -845 34 -113 53 -227 52 -320 0 -131 -45 -543 -62
-563 -5 -7 -10 -26 -9 -42 0 -16 -6 -31 -14 -34 -8 -3 -14 -11 -14 -18 0 -9 3
-8 10 2 15 24 12 2 -5 -30 -9 -17 -19 -30 -23 -30 -4 0 -8 -12 -9 -27 0 -14
-8 -30 -17 -35 -9 -5 -16 -20 -16 -33 0 -14 -4 -25 -10 -25 -5 0 -10 -7 -10
-15 0 -8 -4 -15 -10 -15 -5 0 -10 -7 -10 -17 0 -24 -66 -139 -123 -213 -28
-36 -81 -90 -119 -119 -37 -30 -68 -58 -68 -62 0 -5 -8 -9 -17 -9 -10 0 -63
-21 -118 -46 -55 -25 -132 -58 -170 -74 -39 -15 -89 -38 -111 -49 -60 -31
-278 -93 -364 -103 -182 -21 -304 -25 -355 -11 -27 8 -68 18 -90 24 -53 13
-194 82 -275 134 -36 23 -85 55 -110 70 -72 45 -168 134 -226 210 -72 94 -69
90 -71 100 -1 6 -7 24 -12 40 -21 64 -60 223 -71 290 -6 39 -16 97 -22 130 -5
33 -11 72 -12 86 -2 14 -5 30 -8 35 -8 13 -3 75 7 98 5 12 4 26 -4 38 -7 11
-10 23 -6 26 3 4 9 1 14 -6 4 -7 12 15 20 51 35 174 40 189 155 388 14 26 65
83 111 128 47 45 85 89 85 99 0 11 3 13 8 5 5 -7 36 12 92 57 105 83 229 148
338 176 51 13 91 30 103 43 11 11 21 21 22 21 1 0 18 -4 37 -10 25 -7 36 -7
42 3 6 9 8 9 8 0 0 -7 5 -13 10 -13 6 0 10 11 10 24 0 25 -50 86 -70 86 -7 0
-32 10 -56 22 -59 29 -59 29 -344 -104 -123 -58 -261 -173 -365 -303 -21 -28
-66 -79 -100 -115 -99 -107 -177 -198 -197 -230 -10 -17 -21 -30 -26 -30 -10
0 -31 -43 -89 -180 -41 -99 -44 -113 -52 -238 -11 -170 9 -334 46 -371 8 -7
12 -20 9 -28 -3 -7 -1 -21 4 -31 14 -26 61 -144 67 -169 3 -13 12 -23 19 -23
8 0 14 -9 14 -20 0 -12 7 -34 15 -50 8 -16 15 -33 14 -37 -3 -20 2 -34 11 -28
13 8 40 -19 40 -39 0 -10 6 -13 15 -10 14 6 20 -6 16 -30 -1 -5 7 -6 19 -3 14
4 20 0 20 -13 0 -13 7 -17 29 -14 22 3 28 -1 27 -14 0 -9 5 -16 12 -15 6 2 12
-2 12 -7 0 -6 7 -10 16 -10 9 0 21 -13 27 -30 9 -23 16 -28 32 -24 16 4 23 -2
32 -26 7 -18 17 -29 22 -25 6 3 11 1 11 -4 0 -14 -11 -14 -44 -1 -14 5 -26 17
-26 27 0 13 -2 15 -8 5 -10 -14 -37 -7 -65 16 -9 8 -20 13 -22 10 -10 -9 96
-98 157 -131 32 -18 58 -38 58 -44 0 -14 51 -43 76 -43 10 0 25 -6 33 -13 18
-15 169 -73 216 -82 62 -13 121 -28 160 -41 22 -7 92 -20 155 -29 111 -16 119
-16 245 4 99 16 191 42 388 108 142 47 264 91 270 98 7 6 18 10 25 7 6 -2 12
1 12 7 0 6 9 11 20 11 11 0 20 4 20 9 0 5 12 12 27 16 27 6 233 138 281 179
38 33 241 255 253 277 9 19 9 19 -10 10 -25 -14 -41 -14 -41 -1 0 6 7 10 15
10 11 0 15 11 15 43 0 28 3 37 9 28 13 -21 31 -4 31 30 0 16 5 29 11 29 5 0 7
-5 4 -10 -3 -5 -1 -10 5 -10 6 0 10 6 8 13 -1 6 4 27 11 45 10 25 16 30 23 20
7 -9 8 -7 4 8 -4 13 2 28 15 43 12 13 26 44 31 69 4 26 15 50 23 54 10 6 13
23 10 60 -3 45 0 55 22 76 20 18 22 26 13 37 -14 17 -23 142 -11 149 15 10 0
427 -18 486 -6 19 -11 49 -11 65 0 17 -9 48 -20 70 -11 22 -20 51 -20 65 0 14
-5 31 -12 38 -6 6 -13 26 -15 44 -2 17 -7 34 -11 37 -12 9 -42 93 -36 102 3 5
-2 9 -10 9 -9 0 -16 5 -16 11 0 6 7 9 15 5 8 -3 15 -1 15 4 0 6 -6 10 -14 10
-16 0 -29 27 -20 42 4 5 -3 22 -14 38 -13 17 -19 36 -15 49 4 15 1 21 -11 21
-11 0 -16 9 -16 28 0 20 8 32 30 44 25 14 30 15 30 3 0 -8 5 -15 10 -15 15 0
12 16 -12 72 -18 42 -23 47 -29 32 -7 -18 -8 -18 -8 2 -2 40 -33 114 -57 133
-13 10 -24 26 -24 34 0 9 -11 28 -25 43 -14 15 -25 31 -25 35 0 11 -72 113
-83 117 -4 2 -17 22 -28 43 -11 22 -37 63 -59 92 -22 28 -40 56 -40 60 0 5
-13 25 -29 45 -63 79 -91 138 -132 281 -26 88 -30 118 -27 177 4 64 9 77 47
129 24 34 65 74 97 96 72 48 175 62 372 53 127 -6 142 -9 199 -38 38 -19 94
-62 145 -112 76 -74 90 -94 156 -221 52 -102 72 -152 72 -179 0 -35 32 -97 43
-84 32 40 45 84 51 170 11 155 9 237 -9 384 -16 124 -22 146 -52 197 -47 79
-60 79 -127 8 -30 -32 -60 -59 -68 -59 -8 0 -36 23 -63 51 -95 96 -348 237
-385 214 -6 -4 -13 1 -16 10 -5 12 -18 16 -48 14 -22 -1 -48 1 -56 4 -44 16
-73 13 -160 -15z m230 -1574 c0 -18 -18 -18 -35 0 -10 10 -11 16 -3 24 14 14
38 -2 38 -24z m-190 -6 c0 -6 -6 -5 -15 2 -8 7 -15 14 -15 16 0 2 7 1 15 -2 8
-4 15 -11 15 -16z m240 18 c0 -3 -4 -8 -10 -11 -5 -3 -10 -1 -10 4 0 6 5 11
10 11 6 0 10 -2 10 -4z m-200 -72 c15 -37 12 -40 -10 -11 -22 28 -25 37 -10
37 6 0 15 -12 20 -26z m151 11 c4 3 11 -7 15 -22 4 -15 11 -34 16 -40 6 -7 7
-21 3 -30 -5 -14 -10 -10 -25 22 -10 22 -20 51 -24 65 -3 14 -3 19 0 12 3 -6
10 -10 15 -7z m84 -116 c4 -17 4 -33 1 -36 -9 -9 -12 -2 -19 35 -8 41 9 42 18
1z m-125 -94 c0 -19 -29 32 -35 61 -5 25 -3 23 14 -11 11 -22 20 -44 21 -50z
m44 -70 c14 -31 26 -65 26 -77 0 -32 -14 -11 -35 55 -11 31 -23 57 -28 57 -4
0 -5 5 -2 10 9 15 11 14 39 -45z m76 -205 c6 0 10 6 11 13 0 6 5 -3 11 -22 11
-38 -6 -70 -19 -35 -4 10 -13 25 -20 32 -7 7 -13 28 -12 45 l1 32 9 -32 c5
-18 14 -33 19 -33z m54 -86 c3 -9 6 -24 6 -35 0 -11 8 -31 17 -46 l17 -26 -32
17 c-18 9 -33 22 -33 29 -1 6 -3 22 -4 33 -1 12 -5 26 -9 33 -4 7 0 11 12 11
11 0 23 -7 26 -16z m26 -126 c0 -7 -7 -22 -15 -32 -14 -19 -15 -19 -15 5 0 14
3 29 7 32 10 11 23 8 23 -5z m24 -73 c-16 -11 -16 -14 2 -43 14 -25 16 -34 6
-44 -7 -7 -12 -23 -12 -37 0 -15 -5 -33 -10 -41 -7 -11 -8 -2 -4 28 4 28 3 42
-5 42 -6 0 -11 7 -11 15 0 8 5 15 11 15 8 0 8 4 1 13 -5 6 -10 24 -10 38 0 21
5 27 24 27 22 0 23 -2 8 -13z m29 -118 c3 -8 1 -20 -4 -28 -6 -10 -9 -7 -9 14
0 29 5 35 13 14z m-46 -129 c-3 -7 -5 -2 -5 12 0 14 2 19 5 13 2 -7 2 -19 0
-25z m73 -18 c11 -11 16 -20 12 -20 -5 0 -17 9 -27 20 -10 11 -15 20 -12 20 4
0 16 -9 27 -20z m-62 -75 c-3 -3 -9 2 -12 12 -6 14 -5 15 5 6 7 -7 10 -15 7
-18z m72 -295 c0 -5 -4 -10 -10 -10 -5 0 -10 5 -10 10 0 6 5 10 10 10 6 0 10
-4 10 -10z m-17 -62 c6 -20 -9 -75 -29 -106 -12 -18 -19 -22 -22 -13 -3 8 3
20 12 26 15 11 15 13 1 19 -20 7 -20 56 0 56 8 0 15 7 15 15 0 18 17 20 23 3z
m-2596 -350 c-3 -8 -6 -5 -6 6 -1 11 2 17 5 13 3 -3 4 -12 1 -19z"/>
<path d="M6577 4380 c-58 -28 -222 -156 -253 -197 -15 -21 -32 -39 -36 -41 -4
-2 -8 -17 -8 -33 0 -16 -5 -29 -11 -29 -5 0 -8 4 -4 9 3 5 1 12 -5 16 -5 3
-14 -6 -20 -20 -6 -17 -16 -25 -27 -23 -12 2 -19 -4 -21 -19 -2 -13 -9 -23
-17 -23 -7 0 -15 -7 -19 -15 -3 -8 -11 -15 -18 -15 -18 0 -88 -64 -88 -79 0
-8 -7 -11 -15 -7 -8 3 -21 -4 -30 -17 -8 -12 -15 -18 -15 -14 0 5 -10 -3 -22
-16 -13 -13 -31 -26 -40 -30 -10 -3 -18 -14 -18 -23 0 -8 -5 -14 -12 -12 -13
5 -48 -26 -48 -42 0 -5 -7 -10 -16 -10 -18 0 -144 -116 -232 -213 -19 -20 -37
-37 -41 -37 -10 0 -69 -50 -140 -117 -30 -29 -58 -53 -63 -53 -4 0 -8 -7 -8
-15 0 -8 -6 -15 -14 -15 -7 0 -25 -11 -40 -25 -15 -14 -31 -25 -36 -25 -5 0
-12 -9 -15 -21 -4 -11 -13 -18 -20 -15 -7 2 -25 -6 -40 -20 -14 -13 -29 -24
-33 -24 -4 0 -16 -13 -26 -29 -11 -16 -25 -27 -31 -25 -18 7 -105 -93 -99
-113 4 -12 3 -14 -3 -6 -7 9 -27 -6 -76 -55 -116 -117 -167 -176 -173 -199 -4
-13 -11 -23 -18 -23 -12 0 -65 -45 -137 -115 -21 -19 -42 -35 -48 -35 -5 0
-30 -19 -55 -42 -49 -47 -73 -68 -101 -84 -11 -6 -23 -25 -28 -43 -6 -27 -12
-32 -28 -28 -12 3 -22 0 -26 -9 -3 -8 -11 -14 -19 -14 -8 0 -14 -4 -14 -10 0
-5 -7 -10 -15 -10 -8 0 -15 -4 -15 -10 0 -5 -8 -10 -17 -10 -10 0 -27 -7 -37
-15 -27 -21 -54 -19 -68 4 -9 15 -16 17 -31 9 -10 -5 -21 -8 -23 -5 -3 2 -6
31 -8 63 -5 82 -24 203 -37 239 -54 144 -91 206 -176 293 -45 46 -86 81 -92
77 -6 -3 -11 -1 -11 4 0 6 -7 11 -15 11 -8 0 -15 5 -15 10 0 6 -5 10 -11 10
-6 0 -33 16 -60 36 -26 19 -54 34 -61 33 -25 -3 -51 1 -45 7 6 6 -16 34 -27
34 -3 0 -6 -9 -6 -20 0 -11 -4 -20 -9 -20 -4 0 -6 12 -3 27 4 21 2 25 -12 20
-11 -5 -16 -1 -16 13 0 11 -7 20 -15 20 -8 0 -15 -7 -15 -17 0 -14 -2 -14 -20
2 -13 12 -20 14 -20 5 0 -10 -3 -10 -14 -1 -11 9 -16 9 -22 0 -5 -9 -10 -7
-19 5 -12 15 -15 15 -33 -9 -22 -27 -37 -32 -46 -12 -3 9 -9 7 -19 -5 -8 -10
-27 -18 -44 -18 -16 0 -48 -9 -71 -20 -22 -11 -46 -20 -51 -20 -25 0 -158 -96
-216 -156 -35 -35 -68 -64 -74 -64 -6 0 -11 -7 -11 -15 0 -8 -11 -25 -25 -37
-25 -24 -61 -78 -71 -110 -4 -10 -10 -18 -15 -18 -5 0 -9 -6 -9 -14 0 -7 -8
-24 -19 -37 -10 -13 -22 -35 -26 -49 -4 -13 -14 -30 -21 -38 -8 -7 -14 -27
-14 -43 0 -16 -4 -29 -10 -29 -5 0 -10 -26 -11 -57 0 -32 -8 -96 -18 -143 -9
-47 -14 -86 -11 -88 4 -1 5 -33 2 -71 -4 -63 -3 -69 22 -96 21 -22 26 -37 24
-64 -3 -30 0 -36 17 -36 14 0 21 -8 23 -25 2 -14 7 -34 12 -45 5 -11 17 -42
25 -70 21 -66 43 -113 56 -121 8 -4 8 -9 1 -13 -7 -4 1 -20 20 -41 l31 -35 -6
39 c-3 21 -13 46 -22 56 -8 9 -15 25 -15 36 0 11 -7 29 -15 40 -8 10 -15 29
-15 42 0 12 -8 30 -18 40 -9 9 -18 31 -20 49 -1 17 -9 44 -17 60 -8 15 -18 44
-21 63 -4 19 -11 40 -16 47 -5 7 -7 16 -4 22 3 5 0 11 -6 14 -10 3 -10 7 -1
17 7 7 8 22 3 39 -4 15 -4 34 0 42 4 8 10 68 13 133 3 65 9 122 14 125 14 10
52 95 57 129 6 34 71 129 86 125 5 -2 12 6 15 17 4 11 10 18 15 15 4 -3 13 9
19 26 6 17 15 28 21 24 5 -3 10 0 10 8 0 8 7 17 15 21 8 3 15 1 15 -5 0 -6 5
-7 11 -4 5 4 8 12 6 18 -2 7 7 22 20 34 12 12 23 27 23 33 0 5 10 10 23 10 15
0 29 9 37 25 9 16 16 21 21 14 4 -8 10 -5 17 7 6 11 13 18 16 17 21 -6 46 12
46 33 0 13 5 24 10 24 6 0 10 -6 10 -12 0 -10 3 -9 9 1 6 9 10 10 16 2 10 -17
36 6 28 25 -3 8 0 14 6 14 7 0 14 -7 18 -16 7 -18 47 -12 73 11 8 7 27 11 42
10 15 -2 30 0 33 5 7 11 155 -3 245 -24 29 -6 92 -31 133 -52 16 -8 34 -14 40
-14 16 0 117 -111 117 -129 0 -8 6 -22 13 -30 8 -9 24 -45 36 -81 13 -36 26
-74 31 -85 7 -17 31 -136 44 -215 10 -61 18 -219 11 -239 -3 -11 -19 -28 -35
-36 -16 -8 -52 -38 -79 -65 -28 -28 -53 -50 -57 -50 -3 0 -27 -15 -53 -33 -25
-19 -62 -41 -81 -50 -19 -9 -55 -34 -79 -57 -24 -22 -52 -42 -62 -45 -11 -4
-19 -10 -19 -15 0 -5 -13 -16 -29 -25 -16 -8 -35 -20 -43 -28 -21 -20 -138
-107 -144 -107 -8 0 -131 -87 -176 -124 -109 -91 -140 -110 -179 -107 -29 1
-39 -2 -39 -13 0 -9 -8 -14 -21 -13 -19 1 -45 27 -98 97 -11 14 -23 22 -27 18
-4 -5 11 -29 33 -55 44 -53 61 -82 73 -123 7 -23 4 -28 -21 -37 -19 -8 -29
-18 -29 -32 0 -22 -16 -29 -22 -10 -6 17 -34 0 -47 -28 -6 -14 -14 -23 -17
-20 -3 3 -56 -27 -117 -66 -62 -40 -125 -79 -141 -87 -16 -8 -31 -23 -34 -32
-2 -10 -12 -18 -22 -18 -9 0 -29 -9 -43 -20 -14 -11 -30 -20 -35 -20 -16 0
-102 -51 -102 -61 0 -4 -6 -6 -14 -3 -8 3 -19 -3 -24 -13 -6 -10 -26 -25 -46
-33 -20 -7 -36 -17 -36 -22 0 -4 -7 -8 -15 -8 -8 0 -24 -13 -36 -30 -17 -22
-29 -29 -47 -25 -22 4 -57 -16 -47 -27 3 -3 -8 -3 -24 0 -16 2 -32 -1 -35 -7
-4 -6 -23 -11 -42 -11 -19 0 -34 -4 -34 -10 0 -5 -12 -10 -27 -10 -16 0 -41
-7 -57 -15 -15 -8 -34 -15 -40 -15 -6 0 -38 -13 -71 -30 -33 -16 -66 -30 -73
-30 -7 0 -39 -12 -70 -26 -87 -39 -94 -42 -145 -58 -26 -9 -57 -16 -67 -16
-11 0 -20 -3 -20 -7 0 -5 -10 -9 -22 -10 -156 -15 -200 -17 -204 -11 -3 5 -29
8 -57 8 -58 0 -253 21 -277 30 -3 1 -9 3 -15 4 -5 1 -32 9 -60 17 -27 9 -69
22 -93 30 -70 21 -115 71 -151 167 -17 46 -34 107 -37 136 l-6 52 75 68 c63
57 80 79 107 141 35 80 37 120 5 120 -11 0 -23 -6 -26 -14 -3 -8 -8 -10 -10
-5 -3 5 3 25 13 44 10 19 18 27 18 18 0 -9 5 -20 12 -24 8 -5 9 0 4 17 -4 13
-8 32 -8 41 1 10 -13 27 -30 39 -38 28 -124 28 -144 1 -31 -40 -103 -169 -109
-194 -4 -16 -11 -28 -15 -28 -13 0 -43 -139 -36 -170 3 -16 2 -31 -3 -34 -4
-3 0 -49 10 -104 17 -102 66 -234 100 -273 10 -12 19 -25 19 -29 0 -3 18 -25
41 -47 39 -40 194 -128 208 -118 4 2 28 -2 54 -10 73 -22 175 -28 258 -16 54
9 84 9 103 1 20 -7 75 -7 190 1 88 7 170 12 181 11 23 0 101 20 200 52 39 13
112 36 163 52 51 15 96 32 98 36 3 4 12 8 21 8 14 0 153 58 313 131 36 17 110
59 165 93 55 35 188 117 295 182 189 115 281 178 378 256 45 37 67 46 74 31 6
-16 105 -90 166 -127 34 -21 62 -44 62 -52 0 -8 5 -14 12 -14 7 0 24 -12 40
-27 23 -22 30 -24 43 -13 10 9 15 9 16 1 3 -26 4 -30 12 -37 4 -4 7 -2 7 4 0
7 5 12 10 12 6 0 10 -6 10 -14 0 -8 15 -17 35 -20 19 -4 35 -11 35 -16 0 -6 6
-10 14 -10 8 0 28 -13 46 -30 18 -16 42 -30 54 -30 12 0 38 -12 59 -26 21 -14
51 -27 67 -28 16 -1 32 -5 36 -9 4 -3 15 -2 25 4 13 6 19 6 19 -1 0 -5 7 -10
15 -10 8 0 15 -9 15 -20 0 -11 5 -20 10 -20 6 0 10 -5 10 -10 0 -6 15 -33 34
-60 27 -40 35 -63 41 -119 4 -44 12 -72 20 -75 32 -12 86 9 144 56 l61 49 79
-3 c72 -2 81 0 119 26 22 15 45 25 50 22 9 -5 65 10 127 35 11 4 30 10 41 14
32 9 187 97 209 118 7 7 16 23 20 36 5 17 9 20 15 11 11 -17 76 30 92 66 6 13
16 24 22 24 7 0 20 14 30 31 13 22 21 28 26 18 6 -8 9 -5 12 11 2 16 11 24 28
27 13 2 28 10 33 18 4 8 17 15 27 15 18 0 25 11 21 33 -2 13 23 34 36 30 7 -3
15 7 19 21 3 14 12 26 19 26 8 0 25 24 39 53 14 28 38 68 53 88 120 156 143
189 157 223 19 45 12 61 -12 30 -10 -12 -26 -33 -37 -46 -23 -29 -112 -132
-137 -159 -9 -10 -37 -43 -63 -74 -56 -70 -149 -160 -249 -243 -42 -35 -76
-70 -76 -78 0 -7 -10 -19 -22 -25 -24 -13 -26 -15 -78 -57 -19 -16 -55 -36
-80 -46 -25 -10 -51 -23 -59 -29 -11 -9 -15 -9 -18 1 -3 6 -9 12 -14 12 -6 0
-8 -4 -5 -9 4 -5 -7 -15 -24 -23 -16 -7 -30 -16 -30 -19 0 -10 -35 -6 -42 4
-4 7 -11 7 -20 0 -7 -6 -40 -11 -73 -10 -59 2 -60 3 -63 32 -2 24 14 55 79
150 159 231 479 716 580 877 57 90 164 262 239 383 113 183 356 524 565 795
51 66 361 514 454 655 83 127 90 137 98 155 4 8 45 71 92 140 46 69 109 176
138 239 52 110 53 115 47 176 -6 55 -9 64 -29 67 -13 3 -39 -3 -58 -12z m-383
-562 c-9 -18 -45 -74 -80 -125 -35 -51 -64 -96 -64 -101 0 -5 -9 -17 -20 -27
-11 -10 -20 -22 -20 -27 0 -11 -46 -82 -86 -133 -17 -22 -42 -58 -55 -81 -34
-58 -86 -135 -111 -167 -13 -15 -32 -42 -43 -61 -11 -19 -34 -53 -51 -77 -85
-120 -124 -180 -124 -189 0 -6 -4 -10 -9 -10 -4 0 -21 -19 -36 -42 -16 -24
-65 -92 -110 -153 -331 -446 -435 -591 -435 -604 0 -6 -6 -14 -14 -18 -7 -4
-42 -48 -77 -98 -35 -49 -85 -118 -111 -151 -26 -34 -48 -65 -48 -69 0 -4 -8
-14 -19 -23 -28 -26 -291 -370 -291 -382 0 -5 -4 -10 -9 -10 -5 0 -35 -34 -66
-76 -32 -42 -61 -72 -65 -67 -4 4 -17 67 -29 139 -12 73 -28 148 -36 168 -8
19 -15 51 -15 70 0 19 -4 46 -9 59 -21 55 -46 432 -28 420 4 -2 7 9 7 25 0 26
27 55 207 218 114 104 295 268 402 364 160 142 777 700 956 865 115 105 476
389 503 394 1 1 -5 -14 -14 -31z m-737 -1280 c-3 -8 -6 -5 -6 6 -1 11 2 17 5
13 3 -3 4 -12 1 -19z m-87 -168 c-12 -23 -16 -24 -26 -8 -4 6 -3 8 3 5 6 -4
13 0 17 8 3 8 8 15 11 15 3 0 1 -9 -5 -20z m-1343 -438 c15 -9 35 -96 27 -116
-3 -9 -2 -16 3 -16 5 0 9 -43 9 -95 -1 -52 2 -87 6 -77 4 10 7 1 7 -25 1 -23
6 -45 12 -49 6 -3 9 -15 6 -25 -3 -11 -1 -19 4 -19 5 0 9 -11 9 -24 0 -14 4
-27 9 -31 5 -3 19 -38 32 -78 12 -39 29 -83 39 -97 22 -33 30 -67 23 -100 -5
-26 -6 -27 -24 -12 -10 9 -19 29 -19 44 0 24 -22 48 -44 48 -11 0 -6 -28 5
-32 24 -8 59 -148 37 -148 -4 0 -8 -18 -8 -41 0 -31 -13 -62 -56 -135 -31 -52
-60 -97 -64 -99 -5 -3 -43 0 -86 6 -58 8 -79 8 -84 -1 -5 -9 -13 -9 -26 -2
-11 5 -32 12 -49 15 -16 3 -42 10 -58 16 -15 6 -39 13 -53 15 -35 7 -143 63
-172 90 -13 11 -25 20 -28 19 -11 -7 -24 -1 -24 11 0 13 -22 28 -43 30 -5 1
-14 9 -21 18 -7 9 -25 20 -42 24 -34 8 -74 42 -74 64 0 13 -2 13 -9 1 -8 -12
-16 -9 -46 17 -19 18 -40 32 -45 32 -6 0 -10 7 -10 15 0 9 -9 15 -21 15 -19 0
-21 4 -16 34 3 18 1 38 -4 43 -6 6 150 129 433 341 244 182 445 332 448 332 3
0 10 -4 17 -8z m-3537 -747 c0 -8 -4 -15 -10 -15 -5 0 -10 7 -10 15 0 8 -4 15
-10 15 -5 0 -10 5 -10 10 0 7 6 7 20 0 11 -6 20 -17 20 -25z m4077 13 c-3 -8
-6 -5 -6 6 -1 11 2 17 5 13 3 -3 4 -12 1 -19z m-82 -128 c-3 -5 -10 -10 -16
-10 -5 0 -9 5 -9 10 0 6 7 10 16 10 8 0 12 -4 9 -10z m-58 -72 c-3 -8 -6 -5
-6 6 -1 11 2 17 5 13 3 -3 4 -12 1 -19z m-61 -22 c-3 -14 -2 -28 4 -31 5 -3
10 1 10 10 0 9 4 14 9 10 10 -5 -18 -65 -30 -65 -11 0 -16 34 -11 68 2 18 9
32 14 32 6 0 7 -11 4 -24z m-462 -235 c-6 -6 -24 19 -24 34 1 6 7 1 15 -9 8
-11 12 -22 9 -25z"/>
<path d="M10426 3810 c-15 -5 -36 -15 -45 -23 -9 -8 -47 -31 -86 -50 -70 -36
-195 -136 -335 -270 -41 -40 -100 -92 -130 -117 -76 -61 -220 -209 -220 -225
0 -8 -6 -18 -14 -22 -25 -14 -166 -210 -166 -230 0 -6 -7 -13 -14 -16 -8 -3
-23 -21 -32 -39 -9 -18 -35 -56 -56 -85 -33 -44 -50 -56 -106 -77 -37 -13
-105 -39 -152 -56 -47 -18 -148 -54 -225 -80 -145 -50 -712 -283 -729 -300 -6
-6 -16 -10 -23 -10 -23 0 -215 -128 -372 -248 -123 -93 -167 -134 -258 -240
-108 -126 -151 -199 -168 -282 -4 -19 -14 -46 -23 -60 -9 -14 -17 -42 -18 -64
-1 -21 -6 -41 -12 -45 -9 -6 -30 -88 -31 -121 -1 -8 -5 -40 -10 -70 -11 -67
-7 -246 7 -263 5 -6 12 -40 14 -74 3 -40 10 -69 22 -81 9 -11 16 -23 15 -28
-10 -39 53 -154 83 -154 5 0 29 -14 53 -31 41 -29 52 -32 132 -34 93 -3 219
-40 235 -69 14 -24 67 -34 193 -35 129 -1 293 27 316 55 6 8 19 14 29 14 25 0
149 63 256 130 52 33 97 60 100 60 9 0 114 -106 114 -115 0 -12 133 -134 146
-135 6 0 17 -6 23 -14 14 -17 130 -15 226 4 33 6 75 13 93 17 17 3 32 8 32 12
0 8 87 71 97 71 20 0 71 80 137 215 78 157 96 212 70 212 -8 0 -14 -6 -14 -14
0 -7 -7 -13 -14 -13 -8 0 -27 -16 -42 -35 -44 -59 -242 -205 -332 -247 -70
-31 -95 -38 -148 -38 -122 0 -204 59 -204 148 0 40 6 49 103 150 117 124 167
181 167 192 0 16 235 319 341 440 31 36 98 121 147 190 50 69 110 150 134 180
24 30 73 96 109 147 64 92 64 92 99 85 43 -8 156 -6 170 3 15 9 2 25 -15 18
-11 -3 -13 -1 -9 10 3 9 12 18 19 21 12 4 40 56 58 108 3 9 -1 22 -9 28 -8 7
-14 18 -14 26 0 7 -8 18 -17 23 -23 13 -12 14 21 1 35 -13 32 -1 -8 38 -19 18
-43 32 -57 32 -28 0 -123 -43 -133 -59 -4 -6 -12 -9 -17 -6 -5 4 -9 2 -9 -3 0
-5 -26 -37 -57 -70 -41 -43 -74 -93 -112 -169 -52 -104 -102 -187 -126 -208
-7 -5 -21 -27 -33 -48 -12 -20 -26 -43 -32 -50 -20 -23 -110 -168 -110 -176 0
-10 -137 -176 -226 -271 -38 -42 -86 -96 -107 -120 -111 -128 -188 -199 -211
-192 -4 2 -15 -3 -23 -10 -14 -11 -15 3 -10 127 5 122 11 163 51 317 54 212
96 320 262 677 24 51 44 95 44 98 0 2 35 59 79 126 43 67 103 162 132 211 l54
88 195 68 c107 37 233 86 280 110 47 23 124 59 171 80 47 20 155 77 240 125
135 77 169 103 279 206 123 115 125 118 152 195 26 75 27 83 17 154 -18 121
-76 197 -194 255 -64 31 -155 42 -209 25z m102 -201 c25 -8 34 -20 48 -61 15
-46 15 -54 -1 -111 -19 -69 -71 -142 -142 -203 -169 -142 -270 -218 -317 -234
-28 -10 -104 -43 -168 -73 -133 -63 -234 -101 -295 -112 -59 -9 -57 8 10 97
61 83 522 555 617 633 82 67 172 91 248 64z m-1395 -1166 c-12 -37 -45 -103
-54 -109 -5 -3 -16 -20 -24 -37 -8 -18 -19 -39 -25 -47 -32 -45 -150 -276
-168 -326 -11 -33 -34 -97 -51 -144 -42 -117 -110 -364 -115 -416 -3 -24 -7
-48 -10 -52 -14 -23 -37 -289 -34 -399 1 -67 -1 -125 -5 -129 -4 -4 -7 -19 -7
-33 -1 -48 -56 -94 -200 -167 -159 -79 -182 -84 -390 -89 -291 -7 -447 26
-549 114 -52 45 -64 63 -92 134 -31 79 -32 88 -33 227 -1 172 2 181 133 378
113 170 323 390 551 579 l175 144 263 130 c144 72 293 141 329 155 37 14 72
28 77 32 6 3 17 7 26 8 8 1 40 10 70 21 52 20 116 40 132 42 4 1 5 -7 1 -16z
m-1776 -1535 c-3 -8 -6 -5 -6 6 -1 11 2 17 5 13 3 -3 4 -12 1 -19z m1413 -369
c0 -5 -4 -9 -10 -9 -5 0 -10 7 -10 16 0 8 5 12 10 9 6 -3 10 -10 10 -16z
m-770 -130 c0 -6 -4 -7 -10 -4 -5 3 -10 11 -10 16 0 6 5 7 10 4 6 -3 10 -11
10 -16z"/>
<path d="M3555 3090 c3 -5 8 -10 11 -10 2 0 4 5 4 10 0 6 -5 10 -11 10 -5 0
-7 -4 -4 -10z"/>
<path d="M14824 2738 c-3 -5 -9 -6 -14 -3 -7 4 4 -63 12 -70 1 -1 13 -6 26 -9
27 -9 40 15 24 47 -10 21 -11 21 -11 -6 -1 -38 -33 -33 -38 6 -4 27 11 39 19
15 3 -7 7 -3 10 8 5 21 -17 30 -28 12z"/>
<path d="M14888 2644 c-11 -18 -18 -64 -11 -64 13 0 31 47 23 60 -4 7 -10 8
-12 4z"/>
<path d="M14924 2548 c1 -46 9 -61 18 -35 3 6 0 28 -7 47 l-12 35 1 -47z"/>
<path d="M14954 2460 c0 -11 6 -22 13 -24 14 -6 16 4 7 28 -9 22 -20 20 -20
-4z"/>
<path d="M10157 2110 c-10 -16 -13 -31 -8 -34 9 -6 37 51 29 59 -2 2 -12 -9
-21 -25z"/>
<path d="M15015 1771 c-3 -5 -1 -12 5 -16 5 -3 10 1 10 9 0 18 -6 21 -15 7z"/>
<path d="M15062 1650 c0 -14 2 -19 5 -12 2 6 2 18 0 25 -3 6 -5 1 -5 -13z"/>
<path d="M14975 1380 c-3 -5 -1 -10 4 -10 6 0 11 5 11 10 0 6 -2 10 -4 10 -3
0 -8 -4 -11 -10z"/>
<path d="M7201 784 c0 -11 3 -14 6 -6 3 7 2 16 -1 19 -3 4 -6 -2 -5 -13z"/>
<path d="M12382 630 c0 -14 2 -19 5 -12 2 6 2 18 0 25 -3 6 -5 1 -5 -13z"/>
<path d="M12435 591 c-3 -5 -1 -12 5 -16 5 -3 10 1 10 9 0 18 -6 21 -15 7z"/>
</g>
</svg>
